<?xml version="1.0" encoding="UTF-8"?>
<svg id="Layer_2" data-name="Layer 2" xmlns="http://www.w3.org/2000/svg" viewBox="0 0 347.53 202.37">
  <defs>
    <style>
      .cls-1 {
        fill: #fff;
      }
    </style>
  </defs>
  <g id="Layer_1-2" data-name="Layer 1">
    <g>
      <g>
        <path class="cls-1" d="M178.02,137.03l-.73-.16-1.9-.57c1.29-4.09.89-9.46-2.7-10.09-1.25-.22-2.66.31-3.4,1.43-2.27,3.43.35,7.24,4.35,9.24-2.35,7.82-6.95,14.64-13.94,19.58l3.87-18.86,1.78-9.4c-.6-.25-1.5.02-2.05.69l-7.89,9.52-10.34,14.29,4.21-12.63c.96-2.88,1.14-6.02.47-8.9-.84-3.59-3.93-5.56-7.52-5.14-8.99,1.06-14.06,13.65-9.46,22.86.92,1.85,2.04,3.71,4.31,4.2-3.02-3.55-4.61-7.14-4.46-11.6.15-4.21,1.25-8.21,4.17-11.26,1.52-1.57,3.2-2.78,5.48-2.94,2.02-.14,3.78.98,4.11,3.12.38,2.43.2,5.07-.37,7.6-1.64,7.14-3.94,13.81-6.87,20.61l3.15.02,9.14-12.08c3.5-4.63,6.43-9.36,10.35-14.03l-2.87,11.72-3.01,15.14h1.96c4.71-2.99,8.69-6.66,12.15-11.02,2.58-3.24,4.31-6.73,5.13-10.92l2.47.35c.21.03.64-.72.41-.76ZM173.88,135.53c-2.31-1.27-3.82-3.6-3.49-6.22.09-.75.77-1.65,1.32-1.78,2.62-.6,3.12,4.05,2.17,7.99Z"/>
        <path class="cls-1" d="M207.85,97.77c-9.51-2.36-18.95-1.73-27.94,1.63-3.64,1.36-6.91,2.8-10.11,5.01l-10.11,6.98c-9.68,6.68-21.38,8.42-32.41,4.25-5.43-2.06-9.8-5.44-13.05-10.19-2-3.58-3.39-7.33-3.47-11.61,2.48,7.54,7.6,13.41,14.94,16.7,10.54,4.71,22.81,4.41,33.1-.9,2.29-1.18,4.16-2.71,6.07-4.39,9.17-8.11,19.76-12.08,32.09-10.96,3.83.55,7.6,1.29,10.88,3.5Z"/>
        <path class="cls-1" d="M4.68,144.31c4-2.52,8.83-2.85,12.84-.74,2.59,1.36,3.93,4.19,2.73,6.89-1.1,2.47-3.94,4.1-6.54,3.36,2.93-1.3,5.02-2.41,4.71-5.44s-6.3-5.06-11.69-2.17c-2.75,1.47-4.51,4.5-3.72,7.63,1.4,5.51,11.38,6.28,17.64,3.67,1.88-.79,3.47-2.14,4.66-3.71,2.43-3.23,2.43-7.47-.12-10.63l-3.99-4.95c-1.45-1.8-2.25-3.91-1.81-6.3,1.11-5.98,9.34-8.46,15.65-6.13,1.27.47,2.41,1.42,2.93,2.64.43,1,.17,2.28-.36,3.02-.69.96-1.91,1.41-3.15,1.05-.41-.12-1.09-.92-1.04-1.32s.61-.94,1.05-1.31c.91-.77.26-2.18-.77-2.75-3.05-1.69-7.13-1.14-9.54,1.39-1.79,1.88-1.86,4.46-.24,6.44l5.19,6.36c2.19,2.69,2.91,6.28,1.68,9.54-1.14,3.02-3.29,5.38-6.24,6.86-9.31,4.66-23.95,2.87-24.51-4.92-.25-3.47,1.7-6.6,4.65-8.46Z"/>
        <path class="cls-1" d="M158.5,89.78c2.06-3.84,6.09-5.75,10.19-4.62l5.01,1.38c3.07.85,6.53.8,6.69-1.39s-.09-4.08-.68-6.05c-1.9-6.31,3.9-8.62-.43-12.33l-2.19-1.88c-.78-.67-.71-2.07-.04-2.8l2.67-2.89c.7-.76.46-1.8-.3-2.4-4.48-3.53-9.34-5.69-14.72-7.71l4.9-.51c-.56-1.93-1.31-3.86-2.38-5.67l-3.87-6.57-6.37-14.34c2,2.08,3.21,4.45,4.48,6.96,2.27,4.49,4.65,8.69,7.3,12.97,1.58,2.54,2.75,5.23,4.64,7.55,3.3,4.03,8.29,5.68,8.78,7.65.18.73-.09,1.92-.61,2.43l-2.53,2.51c-.3.3-.91,1.12-.76,1.51s.66,1.02,1.01,1.45c3.06,1.39,4.17,4.53,2.78,7.51-2.33,4.68,1.2,7.13.8,13.26-.37,5.55-8.26,3.73-13.67,2.4-3.35-.82-6.52.23-8.31,3.23-2.9,4.85-2.81,10.58-.43,15.66-1.22-1.09-1.95-2.23-2.7-3.48-1.76-4.49-1.6-9.46.75-13.83Z"/>
        <path class="cls-1" d="M286.59,127.73c-2.67-1.25-5.65-.65-8.11.76-5.85,3.33-9.98,9.03-11.56,15.6-.6,2.51-.67,5.08,0,7.46,1.14,4.04,4.81,6.36,8.95,5.74,3.17-.48,5.76-2.36,7.87-4.75l.41-.46c.12-.13.52.26.87.6-3.2,4.65-8.48,7.61-14.29,6.47-4.28-.84-7.29-4.12-7.95-8.42-1.97-12.78,11.5-27.17,22.36-24.97,3.36.68,5.42,3.04,5.68,6.46.5,6.78-4.97,14.25-11.18,15.04-1.5.19-3.05-.17-3.94-1.11-1.1-1.16-1.29-2.74-1.08-4.42,1.29-4.3,4.56-7.59,8.81-9.38l.5.68c-4.59,1.98-9.19,8.95-6.78,11.67,3.11,3.51,11.66-3.22,12.1-11.62.11-2.03-.65-4.4-2.66-5.34Z"/>
        <path class="cls-1" d="M83,149.73c1.39,1.43,2.23,2.84,3.22,4.34l1.56,2.35c1.38-.56,2.02-1.41,2.92-2.66l.8.78c-.87,1.47-1.84,2.79-3.17,3.69-1.23.84-2.9.66-3.6-.68l-3.45-6.52-1.85.61-1.81,6.77-3.17-.05c2-7.86,3.87-15.22,6.74-22.58,2.14-5.49,6.93-11.6,12.66-9.97,1.01.29,1.96,1.31,2.19,2.09.33,1.09.04,2.29-.91,2.99-.64.47-1.73.4-2.21.04-1.47-1.11.22-2.77-.31-3.64s-2.83-.74-4.35,1.06c-1.16,1.37-2.15,2.94-2.86,4.65-2.41,5.8-4.16,11.6-5.66,17.72l4.84-4.04c1.88-1.57,3.65-3.2,6-3.88.98-.28,2.23.11,2.59.73.51.91.32,2.19-.54,2.83-.27.2-1.08.38-1.37.23s-.68-.74-.78-1.07l-.24-.8c-.05-.16-.73.05-.92.19l-6.31,4.8Z"/>
        <path class="cls-1" d="M194.16,108.85c-6.26-4.06-16.48-5.07-19.87.52-.84,1.39-.73,3.12.07,4.23.94,1.29,2.46,1.57,4.36,1.57-1.38,1.03-3.46.94-4.88.04-1.67-1.05-2.39-2.98-1.9-4.96.45-1.79,1.52-3.37,2.98-4.53,3.68-2.92,8.16-3.88,12.88-3.36,4.71.52,8.92,2.61,12.56,5.67,3.22,2.71,6.42,5.27,10.24,7.12l6.21,1.9c-6.02.55-11.81-1.17-16.76-4.38l-5.89-3.82Z"/>
        <path class="cls-1" d="M121.71,149.05c-.21-2.2-1.94-3.79-4.11-3.77-1.66.02-3.13.58-4.77,1.46.46-3.54,1.74-6.72,3.73-9.99-4.2,1.68-5.83,7.38-7.28,11.57l-3.32,3.48c-.12.13.12.94.28.89l.37-.13c.66-.85,1.18-1.46,2.27-2.13l-2.56,10.18-1.93,5.59c-.43,1.25-2.03,2.1-3.2,1.59.47-.89.87-2.25.05-2.91-1.15-.93-2.57-.36-3.05.8-.41.98-.11,2.38,1.23,2.91,3.93,1.57,8.01-2.14,9.16-6.03l1.7-5.73c1.32,1.94,3.62,2.4,5.8,1.58,3.72-1.39,6.01-5.37,5.63-9.36ZM115.07,157.59c-1.15.79-2.59-.07-3.17-.7-.91-.96-1.08-2.13-.77-3.36l1.32-5.13c.51-.62,1.8-1.32,2.66-1.53,1.58-.37,3.11.59,3.34,2.21.44,3.13-.62,6.61-3.38,8.51Z"/>
        <path class="cls-1" d="M207.14,100.52c6.71,2.42,13.21,4.69,20.04,1.54,2.64-1.22,4.49-3.71,4.33-6.65-.13-2.51-2.18-4.06-4.65-3.79-1.84.2-3.29,1.1-5.02,2.12,1.1-2.27,3.23-3.56,5.5-3.67s4.55,1.26,5.73,3.55c1.78,3.44.88,7.92-2.08,10.47-5.8,4.98-15.31,4.15-21.89.12l-8.4-6.01,6.44,2.32Z"/>
        <path class="cls-1" d="M281.01,101.72c-7.99-2.64-16.23-2.86-24.11-.36-4.62,1.47-8.31,4.12-12.35,6.9,4.75-7.83,11.45-12.15,20.66-12.07,11.69.11,22.81,5.04,30.94,13.12-5.11-3.09-9.57-5.79-15.14-7.59Z"/>
        <path class="cls-1" d="M52.17,145.08c.54-.26,1.64-.12,2.01.22,2.57,2.36-.78,11.3-5.92,13.16-1.44.52-3.5.48-4.42-.86-1.08-1.59-.65-3.55-.51-5.42-2.12,3.44-6.16,8.12-8.79,6.19-.8-.58-1.14-1.92-.75-3.05l2.33-6.88c.09-.25-.02-.85-.14-1.03s-.9,0-1.03.16l-1.87,2.36c-.15.18-.4.58-.52.49l-.78-.51c1.72-2.75,4.25-5.91,6.59-4.69.64.33,1.27,1.66.98,2.53l-2.09,6.38c-.31.95-.45,1.73-.36,2.82.86-.26,1.48-.52,1.91-.97,2.65-2.78,4.52-5.81,5.99-9.47l2.5-.16-.48,2.54c-.53,2.76-1.71,6.7-.3,8,2.06,1.9,6.98-3.87,6.43-8.53-.85-.32-1.58-.78-1.73-1.28-.21-.69.14-1.62.96-2.01Z"/>
        <path class="cls-1" d="M73.37,153.44l-2.26,2.84c-.13.17-1.04.35-1.08.13l-.19-.98,3.33-9.96-3.03.07-1,2.24c-.62-1.61-1.71-2.58-3.42-2.6-5.2-.07-9.53,4.36-9.19,9.54.16,2.52,2.21,4.11,4.59,4.06,2.35-.05,4.18-1.41,5.71-3.19-.03,1.03.02,2.2.63,2.8,1.64,1.59,5.69-1.5,7.08-4.64l-1.18-.3ZM61.46,156.92c-2.06-.74-1.85-3.88-.37-6.75,1.62-3.13,4.6-4.57,6.25-3.23.43.36.97,1.4.93,2.1-.28,4.14-3.73,8.99-6.8,7.88Z"/>
        <path class="cls-1" d="M140.18,57.04c-1.89,4.05.21,7.01,3.58,9.65-3.99-.95-6.52-4.62-6.26-8.71.23-3.58,2.15-6.7,5.1-8.64l5.43-3.56c8.28-5.43,9.33-13.72,6.71-23.4,3.26,5.73,3.49,12.73.68,18.85-1.27,2.78-2.79,5.22-5.26,7l-5.88,4.25c-1.7,1.23-3.22,2.67-4.1,4.55Z"/>
        <path class="cls-1" d="M209.15,112.2c9.72,2.8,21.18,1.6,29.57-3.83,3.12-2.02,5.53-4.54,8.67-6.99-2.47,4.44-5.69,8.54-10.18,11.3-8.6,5.3-19.62,4.99-28.06-.48Z"/>
        <path class="cls-1" d="M193.03,153.66c.75,1.08-4.17,7.16-6.38,4.54-.58-.68-.69-2.15-.39-3.14l6.53-21.52,1.67-5.16,3.15-.32-8.44,26.69c-.21.67-.15,1.51.3,1.96,2.08-1.07,2.85-4.05,3.56-3.05Z"/>
        <path class="cls-1" d="M200.01,153.94c.1-.12.52-.31.65-.35.83-.24-.75,3.44-3.23,4.74-1.05.54-2.4.79-3.05-.35-.51-.9-.52-2.55-.17-3.69l8.04-25.81,3.13-.41-4.83,14.6-3.72,12.79.08.79c.02.22.86.36,1,.19l2.1-2.51Z"/>
        <path class="cls-1" d="M211.13,156.69l2.27-7.76c.11-.37-.04-1.14-.26-1.36-1.14-1.12-4.6,3.05-5.98,5.75l-2.5,4.9c-.69.25-1.9.29-2.67.15l3.03-9.55c.12-.37-.1-1.18-.47-1.38-.92.74-1.86,1.97-2.41,2.88-.13.21-.92-.22-.81-.44,1.2-2.63,3.66-5.22,5.5-4.27.49.25,1.09,1.31.96,1.9l-1.11,4.81c1.86-3.65,6.08-8.48,8.78-6.55.58.41,1.15,1.81.87,2.65l-2.04,6.24c-.21.64-.21,1.25.1,2.07,1.16-.84,1.64-1.5,2.36-2.52l.42-.59c.09-.13.55.23.85.46-1.24,2.42-3.62,5.24-5.83,4.57-.48-.15-1.29-1.23-1.08-1.96Z"/>
        <path class="cls-1" d="M308.51,156.4l2.33-7.74c.1-.32-.16-1.15-.46-1.22-1.89-.46-4.99,4.61-6.41,7.35l-1.9,3.67h-2.52s2.94-9.28,2.94-9.28c.11-.35-.04-1.25-.24-1.75-1.63.73-1.8,2.32-2.78,3.19-.15.13-.57-.63-.47-.83,1.26-2.36,3.35-5.05,5.27-4.24.46.19,1.17,1.14,1.05,1.7l-1.07,5.3c1.51-3.62,5.49-8.23,8.4-6.94s-1.16,7.35-1.32,11.04c1.66-.31,2.02-1.37,2.81-2.43l.44-.58c.12-.16.76.5.66.69-1.19,2.33-3.97,5.2-5.88,4.23-.46-.23-1.08-1.45-.86-2.15Z"/>
        <path class="cls-1" d="M158.89,74.51c-7.96,2.2-14.19,2.66-20.74-2.88,4.39,1.76,8.81,2.2,13.33,1.08l6.74-1.67c2.76-.69,5.54.04,7.47,2.1s3.19,4.81,3.19,7.8l-2.68-4.22c-1.52-2.4-4.47-2.99-7.3-2.2Z"/>
        <path class="cls-1" d="M321.6,154.3l.51-.77c.1-.15.77.33.86.52-1.25,2.69-4.46,5.73-6.31,4.42-.59-.42-1.07-1.7-.85-2.51l2.48-9.1-2.17-.06c0-.24.01-.76.13-.77l.79-.1,1.53-.19,3.16-10.22,2.9-.22-3.2,10.51,2.68.16c-.03.33-.12.83-.27.84l-.78.02-2.1.26-2.12,7.56c-.15.55-.05,1.35.12,2.06,1.33-.55,1.89-1.28,2.63-2.41Z"/>
        <path class="cls-1" d="M100.28,145.34c-4.74.3-8.58,4.84-7.75,9.68.5,2.93,3.5,4.25,6.42,3.61,4.11-.9,6.73-4.72,6.59-8.72-.11-2.92-2.38-4.74-5.26-4.56ZM97.05,157.84c-3.64-1.07-.35-12.64,3.74-11.57.9.24,1.61,1.2,1.62,2.23,0,4.6-2.04,10.31-5.36,9.34Z"/>
        <path class="cls-1" d="M183.84,154.37l-.46.38c-1.31,1.1-2.47,2.27-4.47,2.36-.94.05-2.12-.47-2.43-1.02-.39-.68-.55-1.59-.58-2.34,2.92-.08,5.49-.58,7.86-2.09,1.46-.93,2.33-2.91,1.53-4.53-.54-1.08-1.99-1.71-3.26-1.76-4.77-.17-8.87,3.49-9.39,8.23-.31,2.79,1.59,4.93,4.32,5.14,3.61.27,7.31-2.61,7.41-4.07.02-.13-.41-.41-.52-.31ZM182.22,146.82c.37.36.63,1.36.46,2.01-.79,2.96-3.76,3.86-6.71,4.09.33-4.29,4.37-7.93,6.25-6.1Z"/>
        <path class="cls-1" d="M225.05,157.11c-2.09.23-3.37-1.34-3.26-3.25,4.68-.16,10.8-2.34,9.39-6.35-.36-1.02-1.6-2.03-3.05-2.14-4.95-.41-9.32,3.56-9.63,8.53-.19,2.94,2.12,4.95,4.92,4.88,4.01-.09,7.42-3.63,6.52-4.27-.69-.48-1.69,2.24-4.89,2.6ZM228.1,146.81c.46.41.7,1.46.51,2.2-.71,2.73-3.79,3.79-6.82,3.96.41-4.26,4.42-7.84,6.31-6.16Z"/>
        <path class="cls-1" d="M298.56,147.65c-.44-1.31-1.71-2.17-3.32-2.26-4.94-.28-9.15,3.82-9.3,8.81-.08,2.54,1.84,4.39,4.26,4.54,3.74.24,7.24-2.83,7.16-4.07-.02-.19-.62-.37-.75-.22l-.37.43c-1.27,1.43-2.93,2.61-5.09,2.13-1.56-.35-2.28-2.01-2-3.29,4.76.18,10.64-2.5,9.41-6.08ZM294.97,146.58c.76.37,1.14,1.5.9,2.42-.41,1.61-1.64,3.05-3.44,3.37l-3.23.58c.41-3.85,3.48-7.46,5.77-6.36Z"/>
        <path class="cls-1" d="M340.66,157.13c-1.92,0-3.01-1.73-2.61-3.32,4.73-.17,10.43-2.35,9.11-6.31-.37-1.12-1.77-2.15-3.35-2.17-4.51-.04-8.48,3.62-9.02,8.08-.35,2.86,1.48,5.26,4.35,5.34,2.83.08,5.5-1.37,7.16-3.74l-.82-.65c-1.23,1.62-2.69,2.76-4.82,2.77ZM344.04,146.74c.52.36.86,1.5.57,2.31-.99,2.73-3.61,3.66-6.63,3.93.32-3.93,3.77-7.81,6.06-6.24Z"/>
        <path class="cls-1" d="M240.49,157.29c-3.14,2.51-8.72,1.66-9.36-.95-.18-.72.17-1.84.86-2.23.65-.37,1.66-.09,1.96.47.33.6,0,1.64-.42,2.41,1,1.22,3.33,1.28,4.75.18.46-.35.78-1.31.71-1.88-.06-.49-.64-1.28-1.11-1.55l-2.84-1.63c-.91-.52-1.59-1.73-1.6-2.66,0-1.07.51-2.2,1.45-2.88,3.04-2.23,7.57-1.11,7.79,1.16.06.62-.44,1.5-1.11,1.79-.49.21-1.49-.11-1.72-.55-.2-.38.1-1.2.35-1.78-.73-1.29-3.08-1.12-3.97.12-.64.89-.14,1.91.7,2.38l3.01,1.68c.89.5,1.71,1.67,1.82,2.49.15,1.08-.24,2.61-1.28,3.45Z"/>
        <path class="cls-1" d="M251.75,157.83c-2.19,1.27-5,1.27-7.19.22-1.19-.57-1.85-1.92-1.35-3.19.18-.48,1.06-1.01,1.52-1,.52.02,1.3.62,1.32,1.11.03.56-.31,1.25-.81,1.94,1.08,1.32,3.64,1.43,5.02.13,1.04-.98.62-2.64-.55-3.31l-2.42-1.39c-1.08-.62-1.87-1.78-1.87-2.9,0-1.27.67-2.56,1.87-3.24,2.41-1.37,6.45-.97,7.22,1.03.23.6-.02,1.82-.56,2.1-.75.39-1.55.28-2.1-.24-.37-.35-.11-1.31.23-1.97-.69-1.31-3.1-1.27-4,.18-.43.69-.12,1.8.59,2.21l2.97,1.69c1.26.71,2.11,1.83,2.1,3.18s-.62,2.65-2.01,3.46Z"/>
        <path class="cls-1" d="M147.73,71.49c-7.2,1.16-13.1-1.76-16.55-8.49-2.53-4.93-3.03-10.51-1.44-15.81.06,10.45,4.3,20.31,14.53,23.26l3.47,1.03Z"/>
        <path class="cls-1" d="M333.59,147.3c-2.96,1.42-5.38,7.33-7.01,11.07l-2.77.1,2.97-9.36c.13-.42-.06-1.47-.51-1.59-.87.44-1.4,1.58-2.01,2.36l-.45.57c-.13.16-.74-.47-.67-.67,1.17-2.49,3.61-5.18,5.43-4.24.44.23.98,1.18.89,1.69l-.81,4.47c1.37-2.25,2.54-4.58,4.74-5.94,1.24-.76,2.79-.28,3.21.88s-.22,2.63-1.61,2.85c-.35.05-1.24-.41-1.27-.74l-.14-1.45Z"/>
        <path class="cls-1" d="M207.07,184.67c.28-.26,1.13-.37,1.62-.32l-1.89,9.31h-1.89s-1.2-6.74-1.2-6.74l-1.35,6.51c-.3.43-1.61.43-1.96.02l-1.78-9.08,1.59-.02,1.32,6.86,1.33-6.84h1.65s1.37,6.76,1.37,6.76l1.17-6.48Z"/>
        <path class="cls-1" d="M89.01,193.61l-1.65.14v-4.34s-2.73,0-2.73,0l-.05,4.29h-1.61s-.01-9.42-.01-9.42l1.66.09v3.75s2.77-.04,2.77-.04l-.03-3.59c.23-.1,1.1-.15,1.67-.12v9.25Z"/>
        <polygon class="cls-1" points="270.06 193.6 268.47 193.75 268.48 189.43 265.73 189.41 265.74 193.7 264.1 193.68 264.04 184.45 265.71 184.3 265.72 188.08 268.48 188.12 268.47 184.5 270.06 184.33 270.06 193.6"/>
        <polygon class="cls-1" points="152.73 193.62 151.11 193.74 151.1 189.43 148.36 189.43 148.36 193.7 146.79 193.7 146.79 184.32 148.34 184.33 148.36 188.09 151.13 188.11 151.12 184.32 152.71 184.35 152.73 193.62"/>
        <path class="cls-1" d="M231.89,184.33l-1.93.04-2.7,9.31c.6.09,1.56.17,1.65-.13l.34-1.1c.12-.37.21-1,.5-1l1.24-.04c.3,0,1.17-.07,1.25.21l.32,1.04c.1.32.3,1.07.61,1.06l1.42-.07-2.7-9.31ZM229.91,190.11l.97-4.16,1.07,4.14-2.03.02Z"/>
        <path class="cls-1" d="M113.48,184.36c-.58-.07-1.51-.04-2.07.09l-2.57,8.98c.09.37,1.48.42,1.6,0l.6-2.02h2.75l.63,2.29,1.61-.04-2.55-9.32ZM111.34,190.06l1.11-4.11,1.03,4.04-2.13.06Z"/>
        <path class="cls-1" d="M181.47,193.87c-2,.3-3.67-.89-3.55-2.92.27-.24,1.4-.21,1.59.09.15.82.48,1.54,1.19,1.64s1.46-.24,1.7-1.04c.17-.56-.4-1.41-1-1.7l-2.41-1.15c-1.06-.51-1.07-2.15-.61-3.15s1.69-1.54,2.93-1.48c1.46.07,2.62,1.04,2.49,2.62-.21.1-1.01.25-1.17.03l-.75-1.05c-.36-.5-1.42-.42-1.85.05-.53.58-.36,1.76.39,2.08l2.09.89c1.19.51,1.72,1.71,1.5,2.96-.19,1.09-1.17,1.94-2.56,2.15Z"/>
        <polygon class="cls-1" points="101.78 189.47 98.37 189.52 98.36 192.35 102.09 192.38 102.08 193.75 96.75 193.73 96.76 184.33 102 184.3 102.05 185.65 98.36 185.67 98.34 188.19 101.66 188.2 101.78 189.47"/>
        <path class="cls-1" d="M220.42,189.45l-3.33.08.08,2.87,3.67.03-.03,1.31h-5.23s0-9.4,0-9.4l5.02-.08c.18.2.19,1.22.01,1.39l-3.49.02-.02,2.52,3.4.05-.1,1.23Z"/>
        <polygon class="cls-1" points="137.77 193.61 136.19 193.68 136.19 185.68 133.87 185.62 133.89 184.31 139.95 184.29 139.98 185.63 137.75 185.66 137.77 193.61"/>
        <path class="cls-1" d="M255.47,193.63l-1.62.06v-8.01s-2.17-.03-2.17-.03l.11-1.39,5.56.04c.33.06.38,1.3.03,1.31l-1.93.06.03,7.96Z"/>
        <path class="cls-1" d="M245.4,192.33c.27,0,1.12.19,1.1.44l-.08.97h-5.07s0-9.39,0-9.39l1.6-.03v8.04s2.45-.02,2.45-.02Z"/>
        <polygon class="cls-1" points="128.15 192.37 128.18 193.74 123 193.75 123.01 184.32 124.62 184.37 124.66 192.36 128.15 192.37"/>
        <rect class="cls-1" x="169.37" y="184.27" width="1.59" height="9.48" transform="translate(-.34 .31)"/>
      </g>
      <g>
        <rect class="cls-1" x="24.32" y="201.21" width="299.21" height="1.17"/>
        <rect class="cls-1" x="173.3" y="1.3" width="1.21" height="347.25" transform="translate(-1.11 348.73) rotate(-89.97)"/>
        <path class="cls-1" d="M242.7,15.61l-3.25-1.75-4.13,7.5,1.15.71,1.85-3.18c.46-.02,1.8.83,1.57,1.38l-1.16,2.8,1.32.78.83-2.1c.24-.62.34-1.49.31-2.13.82-.35,1.57-.99,1.96-1.78.26-.54.16-1.9-.46-2.24ZM241.19,18.22c-.43.39-1.03.3-2.29-.35l1.11-2.25c.48-.03,1.45.44,1.66.84.21.4-.04,1.36-.48,1.76Z"/>
        <path class="cls-1" d="M90,35.54c-1.19-.51-2.28.2-2.97,1-1.85,2.15.9,5.39,3.51,6.75,1.32.7,2.67-.05,3.37-1.03,1.73-2.38-1.51-5.69-3.92-6.73ZM92.57,42c-.37.25-1.23.26-1.7-.09-2.08-1.59-4.08-3.72-2.7-4.85.33-.27,1.35-.34,1.7-.07,2.25,1.74,4.28,3.95,2.7,5Z"/>
        <path class="cls-1" d="M110.76,25.99c-.58-.55-1.36-1.07-1.99-1.25.11-.76.07-1.74-.26-2.39-.28-.52-1.53-1.26-2.09-.92l-3.46,2.13,4.75,6.99,1.18-.79-1.98-2.95c.47-.39,1.31-1.01,1.74-.84,1.03.41,1.92,2.49,2.43,2.23l1.26-.65-1.59-1.54ZM107.8,24.32c-.33.67-.86,1.1-1.52,1.61l-1.46-2.28c.76-.43,1.44-.76,1.92-.81.46-.05,1.26,1.07,1.06,1.48Z"/>
        <path class="cls-1" d="M217.57,5.38l-3.78-1.25-2.38,7.79c-.11.36,1.23.76,1.34.42l.92-3.01c.43-.17,1.61.11,1.78.56.43,1.19-.62,2.58-.31,3.19.14.28.91.48,1.26.57l.44-2.31c.09-.51-.09-1.46-.26-1.89.69-.45,1.36-1.16,1.56-1.83.18-.56-.02-2.05-.57-2.24ZM216.45,8.06c-.44.4-1.04.44-2.3.16l.79-2.66c.72.26,1.3.47,1.6.72.34.3.25,1.47-.09,1.78Z"/>
        <path class="cls-1" d="M266.11,32.23l-2.84-2.72-5.53,6.21,1.06,1,2.34-2.73c.58.49,1.08,1.03,1.42,1.62l-1.99,2.62,1.06,1.03,1.56-2.17c.24-.34.4-1.18.37-1.6.72-.1,1.7-.49,2.22-1.06.38-.41.75-1.8.33-2.2ZM263.56,34.31c-.52.08-1.6-.83-1.52-1.31l1.48-1.67c.55.21,1.29.89,1.33,1.36.07.59-.7,1.52-1.29,1.61Z"/>
        <path class="cls-1" d="M123.15,20.78c-.03.34-.82.9-1.07.93l-3.69-7.5,1.3-.5,1.45,2.73,2.19-.99-1.46-3.03,1.31-.53,3.73,7.47-1.26.58-1.77-3.44-2.17,1.09,1.44,3.2Z"/>
        <path class="cls-1" d="M194.86.57c-1.5-.19-2.73.74-3.07,2.38-.31,1.51-.47,3.24-.09,4.78.24,1.02,1.5,1.57,2.31,1.6,2.73.12,3.19-2.57,3.33-5.8.07-1.7-1.06-2.8-2.49-2.97ZM195.34,7.34c-.11.42-.93.92-1.33.87-.4-.04-1.18-.76-1.15-1.18l.41-4.39c.04-.43.9-1,1.32-1,1.71-.03,1.47,2.94.75,5.71Z"/>
        <path class="cls-1" d="M169.64,8.42c0,.36-1.35.44-1.4.05l-.51-8.1,1.37-.15.25,3.4,2.41-.14-.17-3.45,1.4-.03.5,8.43-1.4.09-.25-3.85-2.38.17.18,3.58Z"/>
        <path class="cls-1" d="M256.74,24.24c-1.14-.75-2.52-.72-3.59.34-2.32,2.28-3.93,5.02-1.71,6.71,1.08.82,2.54.96,3.75-.26.93-.93,1.82-2.1,2.38-3.16.79-1.47.34-2.87-.83-3.63ZM256.56,26.74c-1.1,2.24-3.28,4.82-4.35,3.76-1.25-1.24.51-3.82,2.41-5.39.32-.26,1.39-.2,1.67.09.27.28.47,1.13.27,1.54Z"/>
        <path class="cls-1" d="M94.18,30.73c-.21-.26.76-1.26.97-1l3.83,4.61c.52.62,1.36.7,1.95.22.41-.34.43-1.27-.01-1.8l-3.94-4.66,1.13-.94,3.9,4.74c1.01,1.22.7,2.7-.48,3.61s-2.69.99-3.73-.29l-3.62-4.48Z"/>
        <path class="cls-1" d="M207,2.64l1.37.34-1.37,6.16c-.29,1.33-1.39,1.77-2.71,1.64s-2.69-1.06-2.36-2.64l1.31-6.28,1.37.28-1.29,6.07c-.11.52.34,1.37.82,1.5.54.15,1.5-.35,1.62-.93l1.25-6.14Z"/>
        <path class="cls-1" d="M141.78,4.99l-1.66.61.12,8.68,1.45-.47-.19-2.06,2.44-.63.95,1.6c.16.28,1.18-.07,1.46-.27l-4.56-7.46ZM141.41,10.58l-.04-3.86,1.98,3.26-1.94.6Z"/>
        <path class="cls-1" d="M131.52,13.37l.95,2.45,3.09-1.09.49,1.1-4.53,1.65-2.96-7.98,4.41-1.61.33.75c.07.16-.24.52-.42.59l-2.53.93.8,2.17,2.75-1.16.54,1.09-2.92,1.12Z"/>
        <path class="cls-1" d="M233.37,11.25c-.9-.65-2.1-1.07-3.27-1.46l-3.4,7.75,1.25.48,1.61-3.23c1.66,1.01,2.95.9,3.82-.26.59-.79,1.16-2.45,0-3.29ZM231.82,14.17c-.51.36-1.96-.05-1.93-.59l1-2.13c.39-.2,1.51.35,1.65.82.17.6-.26,1.6-.72,1.9Z"/>
        <path class="cls-1" d="M285.33,53.19l-5.42,1.07-2.71,2.04-.9-1.13c.91-.73,2.25-1.32,2.71-2.08l2.81-4.68.96,1.3-2.09,3.16,3.76-.91.88,1.23Z"/>
        <path class="cls-1" d="M83.71,48.68l-5.78-1.37c.2-.33.78-.96,1.1-1.18l3.71.95-1.93-3.34.93-1.26,2.64,5.07,2.73,2.01-.9,1.09-2.5-1.97Z"/>
        <polygon class="cls-1" points="162 9.51 160.53 9.61 159.67 2.63 157.76 2.76 157.6 1.54 162.96 .82 163.05 2.04 161.06 2.37 162 9.51"/>
        <polygon class="cls-1" points="271.24 48.85 270.27 47.85 275.81 43.03 274.62 41.72 275.58 40.87 278.9 44.74 278.06 45.62 276.7 44.12 271.24 48.85"/>
        <polygon class="cls-1" points="155.16 9.3 155.34 10.5 150.88 11.45 149.22 3.27 150.58 2.89 152.05 9.96 155.16 9.3"/>
        <path class="cls-1" d="M266.24,43.13c-.24.23-1-.39-1.17-.83l5.93-5.84,1.08.96-5.84,5.7Z"/>
        <rect class="cls-1" x="242.67" y="22.2" width="8.54" height="1.5" transform="translate(91.66 216.33) rotate(-56.55)"/>
        <path class="cls-1" d="M178.41,10.26l.49-1.3c.09-.25-1.08-2.18-.29-2.15l1.03.03c.24,0,.62,3.23-1.23,3.42Z"/>
      </g>
    </g>
  </g>
</svg>