<svg xmlns="http://www.w3.org/2000/svg" viewBox="0 0 64 64">
  <rect width="64" height="64" rx="14" fill="#01641f"/>
  <path d="M31.2 10.5c5.9 8.1 1.9 16.5-6.3 21.4-4 2.4-5.8 6.5-4.7 11.2-5.2-3.1-7.2-9.5-4.6-15.1 1.6-3.6 4.7-6 8.1-8.1 4.8-3 7.3-5.9 7.5-9.4Z" fill="#f7f5ef"/>
  <path d="M34 20.8c7.1 2.6 11.8 8.6 11.8 15.5 0 9.4-7.5 17-16.8 17-5.1 0-9.6-2.3-12.7-5.9 4 2 8.5 2.3 12.9.5 4.9-2 8.1-6.1 8.7-11.3.6-5.4-.9-10.2-3.9-15.8Z" fill="#d9eadc"/>
  <path d="M25.3 36.5c8.4-5.5 17.9-5.8 27.5.1-8.7-1.8-15.3-.4-21.6 4.3-6.5 4.8-14.5 3.7-20.1-2.1 5.5 2.4 9.8.6 14.2-2.3Z" fill="#f7f5ef"/>
</svg>
